<?xml version="1.0" encoding="UTF-8" standalone="no"?>
<!-- Generator: Gravit.io -->
<svg xmlns="http://www.w3.org/2000/svg" xmlns:xlink="http://www.w3.org/1999/xlink" style="isolation:isolate" viewBox="0 0 1000 1000" width="1000pt" height="1000pt"><defs><clipPath id="_clipPath_MMURDenqMmwwBXsgqsm7fsUah8GzcclH"><rect width="1000" height="1000"/></clipPath></defs><g clip-path="url(#_clipPath_MMURDenqMmwwBXsgqsm7fsUah8GzcclH)"><path d=" M 177.5 500 C 177.5 322.007 322.007 177.5 500 177.5 C 677.993 177.5 822.5 322.007 822.5 500 C 822.5 677.993 677.993 822.5 500 822.5 C 322.007 822.5 177.5 677.993 177.5 500 Z  M 237.5 500 C 237.49 482.22 239.28 464.48 242.84 447.05 C 246.29 430.22 251.41 413.76 258.11 397.92 C 271.33 366.72 290.46 338.37 314.43 314.43 C 338.37 290.46 366.72 271.33 397.92 258.11 C 413.76 251.41 430.22 246.29 447.07 242.84 C 464.49 239.28 482.22 237.49 500 237.5 C 517.78 237.49 535.51 239.28 552.93 242.84 C 569.78 246.29 586.24 251.41 602.08 258.11 C 633.28 271.33 661.63 290.46 685.57 314.43 C 709.54 338.37 728.67 366.72 741.89 397.92 C 748.59 413.76 753.71 430.22 757.16 447.07 C 760.72 464.49 762.51 482.22 762.5 500 C 762.51 517.78 760.72 535.51 757.16 552.93 C 753.71 569.78 748.59 586.24 741.89 602.08 C 728.67 633.28 709.54 661.63 685.57 685.57 C 661.63 709.54 633.28 728.67 602.08 741.89 C 586.24 748.59 569.78 753.71 552.93 757.16 C 535.51 760.72 517.78 762.51 500 762.5 C 482.22 762.51 464.49 760.72 447.07 757.16 C 430.22 753.71 413.76 748.59 397.92 741.89 C 366.72 728.67 338.37 709.54 314.43 685.57 C 290.46 661.63 271.33 633.28 258.11 602.08 C 251.41 586.24 246.29 569.78 242.84 552.93 C 239.28 535.51 237.49 517.78 237.5 500 Z " fill-rule="evenodd" fill="rgb(0,0,0)"/><mask id="_mask_byFjGcHcxJm6ZTWfpJHPvJTdd3sgqt0V"><circle vector-effect="non-scaling-stroke" cx="499.99999999999994" cy="500" r="171.86500000000007" fill="white" stroke="none"/></mask><circle vector-effect="non-scaling-stroke" cx="499.99999999999994" cy="500" r="171.86500000000007" fill="none"/><circle vector-effect="non-scaling-stroke" cx="499.99999999999994" cy="500" r="171.86500000000007" fill="none" mask="url(#_mask_byFjGcHcxJm6ZTWfpJHPvJTdd3sgqt0V)" stroke-width="78" stroke="rgb(0,0,0)" stroke-linejoin="miter" stroke-linecap="square" stroke-miterlimit="3"/></g></svg>