<?xml version="1.0" encoding="UTF-8" standalone="no"?>
<!-- Generator: Gravit.io -->
<svg xmlns="http://www.w3.org/2000/svg" xmlns:xlink="http://www.w3.org/1999/xlink" style="isolation:isolate" viewBox="0 0 1000 1000" width="1000pt" height="1000pt"><defs><clipPath id="_clipPath_qjfDh7NHLakkPid08IKV9blgvXaMrXx6"><rect width="1000" height="1000"/></clipPath></defs><g clip-path="url(#_clipPath_qjfDh7NHLakkPid08IKV9blgvXaMrXx6)"><rect x="470" y="251" width="60" height="437" transform="matrix(1,0,0,1,0,0)" fill="rgb(0,0,0)"/><rect x="386.156" y="170.844" width="60" height="262" transform="matrix(0.707,0.707,-0.707,0.707,335.325,-205.858)" fill="rgb(0,0,0)"/><rect x="547.631" y="155.844" width="60" height="279.574" transform="matrix(-0.707,0.707,-0.707,-0.707,1195.12,96.227)" fill="rgb(0,0,0)"/><g><rect x="110" y="606" width="60" height="252" transform="matrix(1,0,0,1,0,0)" fill="rgb(0,0,0)"/><rect x="830" y="606" width="60" height="252" transform="matrix(1,0,0,1,0,0)" fill="rgb(0,0,0)"/><rect x="470" y="438" width="60" height="780" transform="matrix(0,1,-1,0,1328,328)" fill="rgb(0,0,0)"/></g></g></svg>